<svg xmlns="http://www.w3.org/2000/svg" width="430" height="430" style="width:100%;height:100%;transform:translate3d(0,0,0);content-visibility:visible" viewBox="0 0 430 430"><defs><clipPath id="d"><path d="M0 0h430v430H0z"/></clipPath><clipPath id="k"><path d="M0 0h430v430H0z"/></clipPath><clipPath id="j"><path d="M0 0h430v430H0z"/></clipPath><clipPath id="i"><path d="M0 0h430v430H0z"/></clipPath><clipPath id="e"><path d="M0 0h430v430H0z"/></clipPath><clipPath id="f"><path d="M0 0h430v430H0z"/></clipPath><path id="a" style="display:none"/><path id="c" fill="red" d="M0-167.5c56.996 0 103.2 74.992 103.2 167.5S56.996 167.5 0 167.5c-24.038 0-41.791 1.458-62.407-3.601C-113.95 151.25-144.45 70.723-144.45 0c0-70.406 27.375-140.625 74.693-162.942C-51.243-171.674-29.613-167.5 0-167.5" style="display:block" transform="matrix(.8 0 0 .8 152.16 171.5)"/><mask id="l" mask-type="alpha"><use xmlns:ns1="http://www.w3.org/1999/xlink" ns1:href="#a"/></mask><mask id="g" mask-type="alpha"><g filter="url(#b)"><path fill="#fff" d="M0 0h430v430H0z" opacity="0"/><use xmlns:ns2="http://www.w3.org/1999/xlink" ns2:href="#c"/></g></mask><filter id="b" width="100%" height="100%" x="0%" y="0%" filterUnits="objectBoundingBox"><feComponentTransfer in="SourceGraphic"><feFuncA tableValues="1.0 0.0" type="table"/></feComponentTransfer></filter></defs><g clip-path="url(#d)"><g fill="none" stroke="#C8DDFF" stroke-linecap="round" stroke-width="9.6" clip-path="url(#e)" style="display:block"><g clip-path="url(#f)" mask="url(#g)" style="display:block"><g stroke-linejoin="round" style="display:block"><path d="M192.43 338.877c20.211 20.211 69.267 3.925 109.57-36.378s56.588-89.358 36.377-109.569c-20.212-20.211-69.267-3.925-109.57 36.378s-56.588 89.357-36.377 109.569" class="secondary"/><path d="M360.156 171.151c26.243 26.243 5.095 89.94-47.235 142.27s-116.027 73.478-142.27 47.235c-26.243-26.244-5.096-89.94 47.235-142.27 52.33-52.33 116.026-73.478 142.27-47.235" class="primary"/></g><g stroke-linejoin="round" style="display:block"><path d="M216.543 362.99c20.211 20.211 69.267 3.925 109.57-36.378s56.588-89.358 36.377-109.57c-20.212-20.21-69.267-3.924-109.57 36.378s-56.588 89.358-36.377 109.57" class="secondary" opacity="0"/><path d="M384.269 195.264c26.243 26.243 5.095 89.94-47.235 142.27s-116.027 73.478-142.27 47.235q0 0 0 0" class="primary"/></g><path d="m170.934 360.939 26.94 26.939m19.87-17.464 24.336 24.336m4.514-33.953 23.447 23.447m1.302-37.165 22.936 22.937m-1.157-38.493 22.648 22.648m-2.425-40.891 22.558 22.557m-4.88-42.215 22.648 22.648m-6.526-44.993 22.936 22.937m-9.784-47.12 23.447 23.447m-13.83-52.297 24.336 24.336m-33.811-71.146 26.939 26.94" class="primary" style="display:block"/></g><g stroke-linejoin="round" style="display:block"><path d="M118.28 274.7c35.116 0 63.583-46.204 63.583-103.2S153.396 68.3 118.28 68.3s-63.583 46.204-63.583 103.2 28.467 103.2 63.583 103.2" class="secondary"/><path d="M118.28 37.5c45.597 0 82.56 59.994 82.56 134s-36.963 134-82.56 134-82.56-59.994-82.56-134 36.963-134 82.56-134" class="primary"/></g><g stroke-linejoin="round" style="display:block"><path d="M152.16 274.7c35.116 0 63.583-46.204 63.583-103.2S187.276 68.3 152.16 68.3s-63.583 46.204-63.583 103.2 28.467 103.2 63.583 103.2" class="secondary" opacity="0"/><path d="M152.16 37.5c45.597 0 82.56 59.994 82.56 134s-36.963 134-82.56 134q0 0 0 0" class="primary"/></g><path d="M118.68 305.5h36.868m12.082-26.4h34.035m-17.307-27.2h33.065m-23.472-27.2h32.51m-27.098-26.4h32.196m-30.474-27.2h32.097m-33.819-26.4h32.196m-37.608-27.2h32.51m-42.103-26.4h33.065M167.63 63.9h34.035m-82.986-26.4h36.869" class="primary" style="display:block"/></g><g fill="none" clip-path="url(#i)" style="display:none"><path class="primary" style="display:none"/><g style="display:none"><path class="secondary"/><path class="primary"/></g><g style="display:none"><path class="secondary"/><path class="primary"/></g><path class="primary" style="display:none"/></g><g fill="none" clip-path="url(#j)" style="display:none"><path class="primary" style="display:none"/><g style="display:none"><path class="secondary"/><path class="primary"/></g><g style="display:none"><path class="secondary"/><path class="primary"/></g><path class="primary" style="display:none"/><path class="primary" style="display:none"/><g style="display:none"><path class="secondary"/><path class="primary"/></g><g style="display:none"><path class="secondary"/><path class="primary"/></g><path class="primary" style="display:none"/></g><g clip-path="url(#k)" style="display:none"><g fill="none" style="display:none"><path class="secondary"/><path class="primary"/></g><g fill="none" style="display:none"><path class="secondary"/><path class="primary"/></g><path fill="none" class="primary" style="display:none"/><g mask="url(#l)" style="display:none"><path fill="none" class="primary"/></g><path fill="none" class="primary" style="display:none"/></g></g></svg>