<svg xmlns="http://www.w3.org/2000/svg" width="430" height="430" fill="none" viewBox="0 0 430 430"><path fill="#fff" d="m155 265-92.5-92.5 3.5 167zm122.5-2.5 84-84v165z"/><mask id="5JExWEUVCHa" width="369" height="380" x="31" y="12" maskUnits="userSpaceOnUse" style="mask-type:alpha"><path fill="#D9D9D9" fill-rule="evenodd" d="M399.348 12.642H31.695v379.263h367.653zM355 55H75l1.113 122.327 81.051 80.704 58.231-45.555 57.287 45.035L355 175.078z" clip-rule="evenodd"/></mask><g stroke="#c9ddff" stroke-linejoin="round" stroke-width="12" mask="url(#5JExWEUVCHa)"><path d="M55 165h320v210H55zm0 0h320L242.454 39.91c-15.413-14.546-39.495-14.546-54.908 0z"/><path d="m55 356 104.027-91.024c32.047-28.041 79.899-28.041 111.946 0L375 356v19H55z"/><path stroke-linecap="round" d="m55 165 101.867 101.867M375 165 273.133 266.867"/></g><mask id="iIlD-bXWfvb" width="330" height="223" x="50" y="40" maskUnits="userSpaceOnUse" style="mask-type:alpha"><path fill="#D9D9D9" d="M268.891 262.627 370.757 160.76a6 6 0 0 1 8.486 0V40.266H50.757V160.76a6 6 0 0 1 8.486 0l101.866 101.867z"/></mask><g mask="url(#iIlD-bXWfvb)"><path stroke="#c9ddff" stroke-linecap="round" stroke-linejoin="round" stroke-width="12" d="M355 55H75v220h280z"/></g><path stroke="#c9ddff" stroke-linejoin="round" stroke-width="12" d="m233.256 88.452-34.206 40.225-41.69 19.44c-5.005 2.334-7.171 8.284-4.837 13.29l10.143 21.751c2.334 5.005 8.284 7.171 13.289 4.837l17.22-8.03 23.188 35.529 25.377-11.833-22.917-35.114 51.623-.34z"/><path stroke="#c9ddff" stroke-linecap="round" stroke-linejoin="round" stroke-width="12" d="M260.303 146.456c10.011-4.668 14.342-16.568 9.674-26.578-4.668-10.011-16.568-14.342-26.579-9.674"/></svg>