<svg xmlns="http://www.w3.org/2000/svg" width="430" height="430" fill="none" viewBox="0 0 430 430"><g stroke-linejoin="round" stroke-width="18"><path stroke="#08a88a" stroke-linecap="round" stroke-miterlimit="10" d="M250 240v-20m40 20v-40m-110 40v-20m-40 20v-40"/><path stroke="#c9ddff" stroke-linecap="round" stroke-miterlimit="10" d="M305 90c16.569 0 30-13.431 30-30 0-16.568-13.431-30-30-30s-30 13.432-30 30c0 16.569 13.431 30 30 30"/><path stroke="#c9ddff" d="M245 160c0-24.853 20.147-45 45-45h30c24.853 0 45 20.147 45 45v15H245z"/><path stroke="#c9ddff" stroke-linecap="round" stroke-miterlimit="10" d="M125 90c16.569 0 30-13.431 30-30 0-16.568-13.431-30-30-30S95 43.432 95 60c0 16.569 13.431 30 30 30"/><path stroke="#c9ddff" d="M65 160c0-24.853 20.147-45 45-45h30c24.853 0 45 20.147 45 45v15H65z"/><path stroke="#08a88a" stroke-linecap="round" d="M140 305h40m70 0h40"/><path stroke="#c9ddff" d="M180 270h-40v60c0 41.421 33.579 75 75 75s75-33.579 75-75v-60h-40v60c0 19.33-15.67 35-35 35s-35-15.67-35-35z"/></g></svg>