<svg xmlns="http://www.w3.org/2000/svg" width="430" height="430" fill="none" viewBox="0 0 430 430"><path stroke="#c9ddff" stroke-linecap="round" stroke-linejoin="round" stroke-miterlimit="10" stroke-width="12" d="M55 75c0-11.046 8.954-20 20-20h280c11.046 0 20 8.954 20 20v280c0 11.046-8.954 20-20 20H75c-11.046 0-20-8.954-20-20z"/><path stroke="#c9ddff" stroke-linecap="round" stroke-linejoin="round" stroke-width="12" d="M375 105H55m160 270V105"/><path stroke="#c9ddff" stroke-linecap="round" stroke-linejoin="round" stroke-miterlimit="10" stroke-width="15" d="M150.298 80h.1M90 80h.1m30 0h.198"/><path stroke="#c9ddff" stroke-linecap="round" stroke-linejoin="round" stroke-miterlimit="10" stroke-width="12" d="M135 230c11.046 0 20-8.954 20-20s-8.954-20-20-20-20 8.954-20 20 8.954 20 20 20"/><path stroke="#c9ddff" stroke-linejoin="round" stroke-width="12" d="M90 280c0-16.569 13.431-30 30-30h30c16.569 0 30 13.431 30 30v10H90z"/><path stroke="#c9ddff" stroke-linecap="round" stroke-linejoin="round" stroke-miterlimit="10" stroke-width="12" d="M295 298c8.284 0 15-6.716 15-15s-6.716-15-15-15-15 6.716-15 15 6.716 15 15 15"/><path stroke="#c9ddff" stroke-linejoin="round" stroke-width="12" d="M260 338c0-11.046 8.954-20 20-20h30c11.046 0 20 8.954 20 20v10h-70z"/><path stroke="#c9ddff" stroke-linecap="round" stroke-linejoin="round" stroke-miterlimit="10" stroke-width="12" d="M295 163c8.284 0 15-6.716 15-15s-6.716-15-15-15-15 6.716-15 15 6.716 15 15 15"/><path stroke="#c9ddff" stroke-linejoin="round" stroke-width="12" d="M260 203c0-11.046 8.954-20 20-20h30c11.046 0 20 8.954 20 20v10h-70z"/><circle cx="187.5" cy="132.5" r="7.5" fill="#c9ddff"/><circle cx="347.5" cy="132.5" r="7.5" fill="#c9ddff"/><circle cx="347.5" cy="267.5" r="7.5" fill="#c9ddff"/><path stroke="#c9ddff" stroke-linecap="round" stroke-width="12" d="M215 240h160"/></svg>