<svg xmlns="http://www.w3.org/2000/svg" viewBox="0 0 24 24" fill="currentColor" class="w-6 h-6">
  <path fill-rule="evenodd" d="M8.25 6.75a3.75 3.75 0 117.5 0 3.75 3.75 0 01-7.5 0zM15.75 9.75a3 3 0 116 0 3 3 0 01-6 0zM2.25 9.75a3 3 0 116 0 3 3 0 01-6 0zM6.31 15.117A.75.75 0 016 14.368V12.75h12v1.618a.75.75 0 01-.31.63l-5.25 3.151a.75.75 0 01-.88 0L6.31 15.117z" clip-rule="evenodd" />
  <path d="M5.25 7.5c-.248 0-.488.02-.724.057A4.503 4.503 0 0012 4.5c1.565 0 2.981.525 4.005 1.395A4.503 4.503 0 0018.75 7.5c.248 0 .488.02.724.057A4.503 4.503 0 0012 10.5c-1.565 0-2.981-.525-4.005-1.395A4.503 4.503 0 005.25 7.5z" />
</svg>
