<svg xmlns="http://www.w3.org/2000/svg" width="430" height="430" fill="none" viewBox="0 0 430 430"><g stroke="#c9ddff" stroke-linecap="round" stroke-linejoin="round" stroke-miterlimit="10" stroke-width="18"><path d="M215 375c80.081 0 145-64.919 145-145S295.081 85 215 85 70 149.919 70 230s64.919 145 145 145m102.53-42.469L364.999 380m-252.53-47.469L65.001 380"/><path d="M215 140v90h45M48.787 148.639c-23.432-23.431-23.432-61.421 0-84.853 23.43-23.431 61.421-23.431 84.852 0l-42.426 42.427zm332.425.002c23.432-23.431 23.432-61.421 0-84.853s-61.421-23.431-84.853 0l42.427 42.427z"/></g></svg>