<svg xmlns="http://www.w3.org/2000/svg" width="430" height="430" fill="none" viewBox="0 0 430 430"><g stroke="#c9ddff" stroke-linecap="round" stroke-linejoin="round" stroke-width="12"><path stroke-miterlimit="10" d="m272.135 139.638-66.584 34.104m66.584 116.62-66.547-34.085M330 175c35.899 0 65-29.102 65-65s-29.101-65-65-65-65 29.102-65 65 29.101 65 65 65"/><path d="m312.374 135.015 22.126.188c6.768.052 12.48-5.538 12.5-12.472.02-6.92-5.64-12.543-12.631-12.543h-9.699c-6.997 0-12.67-5.616-12.67-12.543s5.673-12.536 12.67-12.536h19.635M329.503 145v-9.842m0-50.043V75"/><path stroke-miterlimit="10" d="M120 310c52.467 0 95-42.533 95-95s-42.533-94.5-95-94.5-95 42.033-95 94.5 42.533 95 95 95"/><path d="m155 180-70 70m62.5 5c6.904 0 12.5-5.596 12.5-12.5s-5.596-12.5-12.5-12.5-12.5 5.596-12.5 12.5 5.596 12.5 12.5 12.5m-55-55c6.904 0 12.5-5.596 12.5-12.5S99.404 175 92.5 175 80 180.596 80 187.5 85.596 200 92.5 200"/><path stroke-miterlimit="10" d="M330 385c35.898 0 65-29.102 65-65 0-35.899-29.102-65-65-65-35.899 0-65 29.101-65 65s29.101 65 65 65"/><path d="m312.374 345.015 22.126.188c6.768.052 12.48-5.538 12.5-12.472.02-6.92-5.64-12.543-12.631-12.543h-9.699c-6.997 0-12.67-5.616-12.67-12.543s5.673-12.537 12.67-12.537h19.635M329.503 355v-9.842m0-50.043V285"/></g></svg>