<svg xmlns="http://www.w3.org/2000/svg" id="Layer_1" data-name="Layer 1" viewBox="0 0 128 128"><defs fill="#c9ddff"><style>.cls-1{fill:#c9ddff;}.cls-2{fill:#c9ddff;}</style></defs><title>b</title><path class="cls-1" d="M50.12967,62.559a3.82326,3.82326,0,1,0-2.7068-1.12172A3.849,3.849,0,0,0,50.12967,62.559Z" fill="#c9ddff"/><path class="cls-1" d="M77.88964,62.559a3.82979,3.82979,0,1,0-2.70671-1.12172A3.85728,3.85728,0,0,0,77.88964,62.559Z" fill="#c9ddff"/><path class="cls-1" d="M64.01445,90.87122c11.158,0,20.27767-5.52612,25.02627-15.1516A53.15429,53.15429,0,0,0,93.593,61.20211a66.00813,66.00813,0,0,0,.50584-12.74338c-.03778-1.457-.219-25.44147-.219-25.44147l-28.65,5.03548a7.20987,7.20987,0,0,1-.77.1057l-.30955.03018H63.871l-.3095-.03018a7.21132,7.21132,0,0,1-.77005-.1057L34.149,23.01725V42.72876s-.18873,4.27294-.22647,5.73a66.00806,66.00806,0,0,0,.5058,12.74338,53.15432,53.15432,0,0,0,4.55231,14.51752C43.72922,85.34511,52.85646,90.87122,64.01445,90.87122ZM38.58808,48.57954c.02267-.9739.04529-1.97043.06041-2.97446.27932,0,.55865-.00756.838-.00756,10.26716,0,19.30381,4.45416,24.49024,11.18821l.03774.01507.03023-.01507c5.194-6.734,14.223-11.18821,24.49024-11.18821.27932,0,.55865.00756.838.00756.01507,1.004.03774,2.00056.06792,2.97446a61.45135,61.45135,0,0,1-.44539,11.845,48.21821,48.21821,0,0,1-4.1371,13.22651C80.92511,81.63077,73.32286,86.2057,64.01445,86.2057c-9.31593,0-16.91818-4.57493-20.85143-12.55465A48.47734,48.47734,0,0,1,39.026,60.42454,62.06681,62.06681,0,0,1,38.58808,48.57954Z" fill="#c9ddff"/><path class="cls-1" d="M58.727,76.24547h9.694a1.63406,1.63406,0,0,0,0-3.26812H58.727a1.63406,1.63406,0,0,0,0,3.26812Z" fill="#c9ddff"/><path class="cls-1" d="M109.49242,104.7355,86.05883,96.41167l-22.48489,11.915-22.48489-11.915L17.65547,104.7355a6.53154,6.53154,0,0,0-4.20419,4.79611l-3.30046,15.53252H116.99707l-3.30046-15.53252A6.53154,6.53154,0,0,0,109.49242,104.7355Z" fill="#c9ddff"/><path class="cls-2" d="M114.67843,35.94186V13.30873l-.02262.00756a1.71191,1.71191,0,0,0-.09059-.48317v-.00756a1.92078,1.92078,0,0,0-1.4797-1.28336l-48.754-8.57615a1.41516,1.41516,0,0,0-.31711-.03018h-.00756a1.415,1.415,0,0,0-.31706.03018l-48.754,8.57615a1.92072,1.92072,0,0,0-1.47965,1.28336v.00756a1.95647,1.95647,0,0,0-.09815.63417,1.92911,1.92911,0,0,0,1.59291,1.91753l15.01576,2.64229,5.79037,1.0192,27.895,4.90711a2.715,2.715,0,0,0,.3548.03774h.00756a2.59267,2.59267,0,0,0,.35485-.03774l27.895-4.90711,5.79037-1.0192,13.77765-2.42333V35.89656l-3.17076,18.07321.22647.08308a12.81875,12.81875,0,0,0,2.12138.57376,11.86559,11.86559,0,0,0,2.24219.21136,12.202,12.202,0,0,0,3.15564-.41521,12.42412,12.42412,0,0,0,1.21544-.36991l.22647-.08308Z" fill="#c9ddff"/></svg>